<?xml version="1.0" encoding="UTF-8"?>
<svg width="1024px" height="1024px" viewBox="0 0 1024 1024" version="1.1" xmlns="http://www.w3.org/2000/svg" xmlns:xlink="http://www.w3.org/1999/xlink">
    <!-- Generator: Sketch 52.6 (67491) - http://www.bohemiancoding.com/sketch -->
    <title>Facebook Logo</title>
    <desc>Created with Sketch.</desc>
    <g id="Facebook-Logo" stroke="none" stroke-width="1" fill="none" fill-rule="evenodd">
        <path d="M245.856993,527.925577 C235.694753,527.925577 226.456353,527.925577 217.217953,527.925577 C160.863713,526.999488 111.900192,573.303947 110.052512,628.869298 C108.204832,690.917273 155.320673,740 219.065633,740 C399.214435,740 578.439397,740 758.588199,740 C767.826599,740 777.988839,740 787.227239,739.073911 C856.51524,729.813019 910.09796,671.469401 913.79332,602.012712 C917.48868,530.703845 871.29668,467.729781 802.008679,451.060175 C786.303399,447.355819 770.598119,446.429729 753.968999,444.577551 C753.045159,437.168838 751.197479,429.760124 750.273639,421.425322 C739.187559,336.225117 654.194278,272.324963 569.200997,287.14239 C507.303716,298.25546 464.807076,333.446849 442.634916,392.716557 C438.939555,401.977449 435.244195,411.238341 431.548835,421.425322 C420.462755,415.868786 410.300515,409.386162 400.138275,404.755716 C335.469474,372.342595 257.866914,413.090519 248.628514,484.399386 C245.856993,498.290724 246.780833,513.10815 245.856993,527.925577 Z" id="Path" stroke="#363636" stroke-width="26" fill="#FBDD58" fill-rule="nonzero"></path>
        <path d="M245.856993,527.925577 C235.694753,527.925577 226.456353,527.925577 217.217953,527.925577 C160.863713,526.999488 111.900192,573.303947 110.052512,628.869298 C108.204832,690.917273 155.320673,740 219.065633,740 C399.214435,740 578.439397,740 758.588199,740 C767.826599,740 777.988839,740 787.227239,739.073911 C856.51524,729.813019 910.09796,671.469401 913.79332,602.012712 C917.48868,530.703845 871.29668,467.729781 802.008679,451.060175 C786.303399,447.355819 770.598119,446.429729 753.968999,444.577551 C753.045159,437.168838 751.197479,429.760124 750.273639,421.425322 C739.187559,336.225117 654.194278,272.324963 569.200997,287.14239 C507.303716,298.25546 464.807076,333.446849 442.634916,392.716557 C438.939555,401.977449 435.244195,411.238341 431.548835,421.425322 C420.462755,415.868786 410.300515,409.386162 400.138275,404.755716 C335.469474,372.342595 257.866914,413.090519 248.628514,484.399386 C245.856993,498.290724 246.780833,513.10815 245.856993,527.925577 Z" id="Path" stroke="#363636" stroke-width="26" fill="#FFFFFF" fill-rule="nonzero"></path>
    </g>
</svg>